<svg width="12" height="12" viewBox="0 0 12 12" fill="none" xmlns="http://www.w3.org/2000/svg">
<mask id="path-1-outside-1_4_102" maskUnits="userSpaceOnUse" x="1" y="1" width="11" height="11" fill="black">
<rect fill="white" x="1" y="1" width="11" height="11"/>
<path d="M1 2C1 1.44772 1.44772 1 2 1H10C10.5523 1 11 1.44772 11 2V10C11 10.5523 10.5523 11 10 11H2C1.44772 11 1 10.5523 1 10V2Z"/>
</mask>
<path d="M1 1H11H1ZM12 10C12 11.1046 11.1046 12 10 12H3C1.89543 12 1 11.1046 1 10C1 10 1.44772 10 2 10H10H12ZM1 11V1V11ZM10 1C11.1046 1 12 1.89543 12 3V10C12 11.1046 11.1046 12 10 12V10V2C10 1.44772 10 1 10 1Z" fill="#BDA68A" mask="url(#path-1-outside-1_4_102)"/>
<path d="M0 1C0 0.447715 0.447715 0 1 0H9C9.55228 0 10 0.447715 10 1V9C10 9.55228 9.55229 10 9 10H1C0.447715 10 0 9.55229 0 9V1Z" fill="#BDA68A"/>
</svg>
